<svg xmlns="http://www.w3.org/2000/svg" viewBox="0 0 650 500" width="650" height="500" role="img" aria-label="Languages by bytes: C++ 100, C 84, Python 20, HTML 17, Jupyter Notebook 10, Dart 5, JavaScript 4"><text x="325.0" y="26" text-anchor="middle" font-family="ui-sans-serif,-apple-system,Segoe UI,Helvetica,Arial,sans-serif" font-size="15" font-weight="600" fill="#0e7490">Languages by bytes</text><polygon points="325.0,221.8 357.3,237.3 365.2,272.2 342.9,300.2 307.1,300.2 284.8,272.2 292.7,237.3" fill="none" stroke="#d0d7de" stroke-width="1"/><polygon points="325.0,180.5 389.5,211.6 405.4,281.4 360.8,337.3 289.2,337.3 244.6,281.4 260.5,211.6" fill="none" stroke="#d0d7de" stroke-width="1"/><polygon points="325.0,139.2 421.8,185.8 445.6,290.5 378.7,374.5 271.3,374.5 204.4,290.5 228.2,185.8" fill="none" stroke="#d0d7de" stroke-width="1"/><polygon points="325.0,98.0 454.0,160.1 485.9,299.7 396.6,411.7 253.4,411.7 164.1,299.7 196.0,160.1" fill="none" stroke="#d0d7de" stroke-width="1"/><line x1="325.0" y1="263.0" x2="325.0" y2="98.0" stroke="#afb8c1" stroke-width="1"/><line x1="325.0" y1="263.0" x2="454.0" y2="160.1" stroke="#afb8c1" stroke-width="1"/><line x1="325.0" y1="263.0" x2="485.9" y2="299.7" stroke="#afb8c1" stroke-width="1"/><line x1="325.0" y1="263.0" x2="396.6" y2="411.7" stroke="#afb8c1" stroke-width="1"/><line x1="325.0" y1="263.0" x2="253.4" y2="411.7" stroke="#afb8c1" stroke-width="1"/><line x1="325.0" y1="263.0" x2="164.1" y2="299.7" stroke="#afb8c1" stroke-width="1"/><line x1="325.0" y1="263.0" x2="196.0" y2="160.1" stroke="#afb8c1" stroke-width="1"/><g><path d="M325.0 98.0C340.2 87.0 429.4 153.3 433.7 176.3C438.0 199.3 370.0 255.4 357.1 270.3C344.3 285.2 342.3 287.0 337.0 288.0C331.8 289.0 320.7 280.7 318.0 277.6C315.2 274.6 316.3 267.4 316.5 264.9C316.8 262.4 318.7 281.1 319.8 258.9C321.0 236.6 309.8 109.0 325.0 98.0Z" fill="#0e7490" fill-opacity="0.16" stroke="#0e7490" stroke-width="2.5" stroke-linejoin="round"/><circle cx="325.0" cy="98.0" r="3.4" fill="#0e7490"/><circle cx="433.7" cy="176.3" r="3.4" fill="#0e7490"/><circle cx="357.1" cy="270.3" r="3.4" fill="#0e7490"/><circle cx="337.0" cy="288.0" r="3.4" fill="#0e7490"/><circle cx="318.0" cy="277.6" r="3.4" fill="#0e7490"/><circle cx="316.5" cy="264.9" r="3.4" fill="#0e7490"/><circle cx="319.8" cy="258.9" r="3.4" fill="#0e7490"/></g><text x="325.0" y="74.0" text-anchor="middle" dominant-baseline="middle" font-family="ui-sans-serif,-apple-system,Segoe UI,Helvetica,Arial,sans-serif" font-size="13" font-weight="600" fill="#1f2328">C++</text><text x="325.0" y="89.0" text-anchor="middle" dominant-baseline="middle" font-family="ui-monospace,SFMono-Regular,Menlo,Consolas,monospace" font-size="10.5" fill="#57606a">100</text><text x="472.8" y="145.2" text-anchor="start" dominant-baseline="middle" font-family="ui-sans-serif,-apple-system,Segoe UI,Helvetica,Arial,sans-serif" font-size="13" font-weight="600" fill="#1f2328">C</text><text x="472.8" y="160.2" text-anchor="start" dominant-baseline="middle" font-family="ui-monospace,SFMono-Regular,Menlo,Consolas,monospace" font-size="10.5" fill="#57606a">84</text><text x="509.3" y="305.1" text-anchor="start" dominant-baseline="middle" font-family="ui-sans-serif,-apple-system,Segoe UI,Helvetica,Arial,sans-serif" font-size="13" font-weight="600" fill="#1f2328">Python</text><text x="509.3" y="320.1" text-anchor="start" dominant-baseline="middle" font-family="ui-monospace,SFMono-Regular,Menlo,Consolas,monospace" font-size="10.5" fill="#57606a">20</text><text x="407.0" y="433.3" text-anchor="start" dominant-baseline="middle" font-family="ui-sans-serif,-apple-system,Segoe UI,Helvetica,Arial,sans-serif" font-size="13" font-weight="600" fill="#1f2328">HTML</text><text x="407.0" y="448.3" text-anchor="start" dominant-baseline="middle" font-family="ui-monospace,SFMono-Regular,Menlo,Consolas,monospace" font-size="10.5" fill="#57606a">17</text><text x="243.0" y="433.3" text-anchor="end" dominant-baseline="middle" font-family="ui-sans-serif,-apple-system,Segoe UI,Helvetica,Arial,sans-serif" font-size="13" font-weight="600" fill="#1f2328">Jupyter Notebook</text><text x="243.0" y="448.3" text-anchor="end" dominant-baseline="middle" font-family="ui-monospace,SFMono-Regular,Menlo,Consolas,monospace" font-size="10.5" fill="#57606a">10</text><text x="140.7" y="305.1" text-anchor="end" dominant-baseline="middle" font-family="ui-sans-serif,-apple-system,Segoe UI,Helvetica,Arial,sans-serif" font-size="13" font-weight="600" fill="#1f2328">Dart</text><text x="140.7" y="320.1" text-anchor="end" dominant-baseline="middle" font-family="ui-monospace,SFMono-Regular,Menlo,Consolas,monospace" font-size="10.5" fill="#57606a">5</text><text x="177.2" y="145.2" text-anchor="end" dominant-baseline="middle" font-family="ui-sans-serif,-apple-system,Segoe UI,Helvetica,Arial,sans-serif" font-size="13" font-weight="600" fill="#1f2328">JavaScript</text><text x="177.2" y="160.2" text-anchor="end" dominant-baseline="middle" font-family="ui-monospace,SFMono-Regular,Menlo,Consolas,monospace" font-size="10.5" fill="#57606a">4</text></svg>