<svg xmlns="http://www.w3.org/2000/svg" viewBox="0 0 650 500" width="650" height="500" role="img" aria-label="Languages by bytes: C++ 100, C 84, Python 26, HTML 17, Jupyter Notebook 10, Dart 7, TypeScript 6"><text x="325.0" y="26" text-anchor="middle" font-family="ui-sans-serif,-apple-system,Segoe UI,Helvetica,Arial,sans-serif" font-size="15" font-weight="600" fill="#0e7490">Languages by bytes</text><polygon points="325.0,221.8 357.3,237.3 365.2,272.2 342.9,300.2 307.1,300.2 284.8,272.2 292.7,237.3" fill="none" stroke="#d0d7de" stroke-width="1"/><polygon points="325.0,180.5 389.5,211.6 405.4,281.4 360.8,337.3 289.2,337.3 244.6,281.4 260.5,211.6" fill="none" stroke="#d0d7de" stroke-width="1"/><polygon points="325.0,139.2 421.8,185.8 445.6,290.5 378.7,374.5 271.3,374.5 204.4,290.5 228.2,185.8" fill="none" stroke="#d0d7de" stroke-width="1"/><polygon points="325.0,98.0 454.0,160.1 485.9,299.7 396.6,411.7 253.4,411.7 164.1,299.7 196.0,160.1" fill="none" stroke="#d0d7de" stroke-width="1"/><line x1="325.0" y1="263.0" x2="325.0" y2="98.0" stroke="#afb8c1" stroke-width="1"/><line x1="325.0" y1="263.0" x2="454.0" y2="160.1" stroke="#afb8c1" stroke-width="1"/><line x1="325.0" y1="263.0" x2="485.9" y2="299.7" stroke="#afb8c1" stroke-width="1"/><line x1="325.0" y1="263.0" x2="396.6" y2="411.7" stroke="#afb8c1" stroke-width="1"/><line x1="325.0" y1="263.0" x2="253.4" y2="411.7" stroke="#afb8c1" stroke-width="1"/><line x1="325.0" y1="263.0" x2="164.1" y2="299.7" stroke="#afb8c1" stroke-width="1"/><line x1="325.0" y1="263.0" x2="196.0" y2="160.1" stroke="#afb8c1" stroke-width="1"/><g><path d="M325.0 98.0C340.5 87.4 427.3 153.7 432.9 176.9C438.5 200.2 379.5 257.7 366.8 272.5C354.0 287.4 343.8 287.8 337.3 288.5C330.8 289.2 321.0 280.8 317.9 277.7C314.8 274.6 314.0 268.4 313.8 265.5C313.7 262.7 315.2 278.7 316.7 256.4C318.2 234.0 309.5 108.6 325.0 98.0Z" fill="#0e7490" fill-opacity="0.16" stroke="#0e7490" stroke-width="2.5" stroke-linejoin="round"/><circle cx="325.0" cy="98.0" r="3.4" fill="#0e7490"/><circle cx="432.9" cy="176.9" r="3.4" fill="#0e7490"/><circle cx="366.8" cy="272.5" r="3.4" fill="#0e7490"/><circle cx="337.3" cy="288.5" r="3.4" fill="#0e7490"/><circle cx="317.9" cy="277.7" r="3.4" fill="#0e7490"/><circle cx="313.8" cy="265.5" r="3.4" fill="#0e7490"/><circle cx="316.7" cy="256.4" r="3.4" fill="#0e7490"/></g><text x="325.0" y="74.0" text-anchor="middle" dominant-baseline="middle" font-family="ui-sans-serif,-apple-system,Segoe UI,Helvetica,Arial,sans-serif" font-size="13" font-weight="600" fill="#1f2328">C++</text><text x="325.0" y="89.0" text-anchor="middle" dominant-baseline="middle" font-family="ui-monospace,SFMono-Regular,Menlo,Consolas,monospace" font-size="10.5" fill="#57606a">100</text><text x="472.8" y="145.2" text-anchor="start" dominant-baseline="middle" font-family="ui-sans-serif,-apple-system,Segoe UI,Helvetica,Arial,sans-serif" font-size="13" font-weight="600" fill="#1f2328">C</text><text x="472.8" y="160.2" text-anchor="start" dominant-baseline="middle" font-family="ui-monospace,SFMono-Regular,Menlo,Consolas,monospace" font-size="10.5" fill="#57606a">84</text><text x="509.3" y="305.1" text-anchor="start" dominant-baseline="middle" font-family="ui-sans-serif,-apple-system,Segoe UI,Helvetica,Arial,sans-serif" font-size="13" font-weight="600" fill="#1f2328">Python</text><text x="509.3" y="320.1" text-anchor="start" dominant-baseline="middle" font-family="ui-monospace,SFMono-Regular,Menlo,Consolas,monospace" font-size="10.5" fill="#57606a">26</text><text x="407.0" y="433.3" text-anchor="start" dominant-baseline="middle" font-family="ui-sans-serif,-apple-system,Segoe UI,Helvetica,Arial,sans-serif" font-size="13" font-weight="600" fill="#1f2328">HTML</text><text x="407.0" y="448.3" text-anchor="start" dominant-baseline="middle" font-family="ui-monospace,SFMono-Regular,Menlo,Consolas,monospace" font-size="10.5" fill="#57606a">17</text><text x="243.0" y="433.3" text-anchor="end" dominant-baseline="middle" font-family="ui-sans-serif,-apple-system,Segoe UI,Helvetica,Arial,sans-serif" font-size="13" font-weight="600" fill="#1f2328">Jupyter Notebook</text><text x="243.0" y="448.3" text-anchor="end" dominant-baseline="middle" font-family="ui-monospace,SFMono-Regular,Menlo,Consolas,monospace" font-size="10.5" fill="#57606a">10</text><text x="140.7" y="305.1" text-anchor="end" dominant-baseline="middle" font-family="ui-sans-serif,-apple-system,Segoe UI,Helvetica,Arial,sans-serif" font-size="13" font-weight="600" fill="#1f2328">Dart</text><text x="140.7" y="320.1" text-anchor="end" dominant-baseline="middle" font-family="ui-monospace,SFMono-Regular,Menlo,Consolas,monospace" font-size="10.5" fill="#57606a">7</text><text x="177.2" y="145.2" text-anchor="end" dominant-baseline="middle" font-family="ui-sans-serif,-apple-system,Segoe UI,Helvetica,Arial,sans-serif" font-size="13" font-weight="600" fill="#1f2328">TypeScript</text><text x="177.2" y="160.2" text-anchor="end" dominant-baseline="middle" font-family="ui-monospace,SFMono-Regular,Menlo,Consolas,monospace" font-size="10.5" fill="#57606a">6</text></svg>